<svg width="194" height="19" viewBox="0 0 194 19" fill="none" xmlns="http://www.w3.org/2000/svg">
<path d="M134.812 6.79675C134.812 9.20104 136.283 10.7964 138.564 10.7964C140.317 10.7964 141.553 9.78526 141.845 8.15619H140.867C140.575 9.25722 139.733 9.89761 138.519 9.89761C136.868 9.89761 135.812 8.60559 135.812 6.79675C135.812 4.97668 136.868 3.69589 138.519 3.69589C139.71 3.69589 140.587 4.33629 140.879 5.43732H141.856C141.564 3.80824 140.306 2.79709 138.564 2.79709C136.283 2.79709 134.812 4.41493 134.812 6.79675ZM142.945 2.8645V10.729H143.867V2.8645H142.945ZM145.589 2.78586C145.252 2.78586 144.994 3.03303 144.994 3.38131C144.994 3.7296 145.252 3.97677 145.589 3.97677C145.926 3.97677 146.185 3.7296 146.185 3.38131C146.185 3.03303 145.926 2.78586 145.589 2.78586ZM145.129 4.99915V10.729H146.05V4.99915H145.129ZM147.11 7.86408C147.11 9.61674 148.233 10.7964 149.952 10.7964C151.278 10.7964 152.222 9.95379 152.447 8.80782H151.514C151.323 9.54933 150.694 9.97626 149.885 9.97626C148.818 9.97626 148.11 9.23475 148.076 8.12248V8.04384H152.525C152.536 7.90902 152.548 7.7742 152.548 7.65061C152.503 5.95413 151.402 4.93174 149.829 4.93174C148.211 4.93174 147.11 6.10018 147.11 7.86408ZM148.132 7.27986C148.222 6.34735 148.997 5.74066 149.84 5.74066C150.795 5.74066 151.503 6.29118 151.593 7.27986H148.132ZM156.408 4.93174C155.441 4.93174 154.857 5.3362 154.52 5.77437L154.397 4.99915H153.599V10.729H154.52V7.86408C154.52 6.57205 155.172 5.77437 156.25 5.77437C157.25 5.77437 157.801 6.40353 157.801 7.59444V10.729H158.722V7.53826C158.722 5.63955 157.7 4.93174 156.408 4.93174ZM160.279 9.23475C160.279 10.2459 160.672 10.729 161.773 10.729H162.829V9.88638H161.829C161.368 9.88638 161.2 9.70662 161.2 9.22351V5.84178H162.649V4.99915H161.2V3.39255H160.279V4.99915H159.245V5.84178H160.279V9.23475ZM166.56 2.8645V10.729H167.537V7.70679H169.582C171.155 7.70679 172.188 6.75181 172.188 5.28003C172.188 3.80824 171.155 2.8645 169.582 2.8645H166.56ZM167.537 3.7633H169.503C170.537 3.7633 171.188 4.34752 171.188 5.28003C171.188 6.21253 170.526 6.80799 169.492 6.80799H167.537V3.7633ZM175.444 10.7964C177.118 10.7964 178.286 9.6055 178.286 7.86408C178.286 6.12265 177.118 4.93174 175.444 4.93174C173.77 4.93174 172.601 6.12265 172.601 7.86408C172.601 9.6055 173.77 10.7964 175.444 10.7964ZM175.444 9.97626C174.309 9.97626 173.545 9.08869 173.545 7.86408C173.545 6.63946 174.309 5.7519 175.444 5.7519C176.578 5.7519 177.342 6.63946 177.342 7.86408C177.342 9.08869 176.578 9.97626 175.444 9.97626ZM181.994 4.99915C180.972 4.99915 180.534 5.42608 180.264 5.86425L180.14 4.99915H179.343V10.729H180.264V7.8079C180.264 6.89787 180.59 5.89795 181.792 5.89795H182.252V4.99915H181.994ZM183.634 9.23475C183.634 10.2459 184.027 10.729 185.128 10.729H186.185V9.88638H185.185C184.724 9.88638 184.555 9.70662 184.555 9.22351V5.84178H186.005V4.99915H184.555V3.39255H183.634V4.99915H182.601V5.84178H183.634V9.23475ZM191.828 9.88638C191.592 9.88638 191.446 9.75156 191.446 9.47068V6.99898C191.446 5.66202 190.604 4.93174 189.143 4.93174C187.761 4.93174 186.851 5.59461 186.716 6.71811H187.638C187.75 6.13389 188.289 5.7519 189.098 5.7519C189.997 5.7519 190.525 6.2013 190.525 6.94281V7.33603H188.84C187.334 7.33603 186.537 7.97643 186.537 9.1224C186.537 10.1673 187.39 10.7964 188.649 10.7964C189.637 10.7964 190.21 10.3582 190.57 9.84144C190.581 10.4032 190.84 10.729 191.604 10.729H192.109V9.88638H191.828ZM190.525 8.39212C190.525 9.3471 189.862 10.01 188.716 10.01C187.952 10.01 187.469 9.62797 187.469 9.06622C187.469 8.41459 187.93 8.11125 188.75 8.11125H190.525V8.39212ZM192.817 2.8645V10.729H193.739V2.8645H192.817Z" fill="#D4DFE1"/>
<path fill-rule="evenodd" clip-rule="evenodd" d="M0.628906 18.6247V16.5967C0.628906 13.9397 1.11191 9.93173 9.44291 8.19273L13.6449 7.32373C16.0839 6.86473 16.3009 6.38173 16.3009 5.82673C16.3009 5.12573 15.7459 4.47473 11.7849 4.47473C7.26991 4.47473 6.88291 6.11573 6.81091 7.00973H0.942906V6.81673C0.942906 4.76373 1.81191 0.344727 11.1089 0.344727H12.0749C20.5259 0.344727 22.2409 3.02473 22.2409 5.87473V5.92273C22.2409 8.62773 21.2029 10.3417 15.3109 11.3077L10.3849 12.1287C6.13491 12.9017 5.65191 13.8677 5.65191 14.3747H17.0249V12.0567H22.5549V18.6247H0.628906Z" fill="#D4DFE1"/>
<path fill-rule="evenodd" clip-rule="evenodd" d="M35.0613 18.9387C25.2813 18.9387 24.3633 14.0847 24.3633 12.2497V12.0567H30.2803C30.3523 12.5157 30.6183 14.7857 35.5683 14.7857C40.6873 14.7857 40.9773 13.5057 40.9773 12.7807C40.9773 12.0807 40.5903 11.3807 38.4663 11.3807H32.1153V7.20273H38.1763C40.1803 7.20273 40.5193 6.62373 40.5193 6.01973C40.5193 5.36773 40.1323 4.44973 35.2063 4.44973C30.4003 4.44973 30.3523 6.11573 30.2803 6.50273H24.4123V6.26073C24.4123 4.61973 25.1363 0.344727 34.6743 0.344727H35.6883C45.2993 0.344727 46.4103 3.04973 46.4103 4.98073V5.12573C46.4103 7.00973 44.6963 7.97573 43.5373 8.24073C44.9613 8.62773 46.9663 9.85873 46.9663 12.6357V12.8047C46.9663 15.8237 45.0583 18.9387 36.1963 18.9387H35.0613Z" fill="#D4DFE1"/>
<path fill-rule="evenodd" clip-rule="evenodd" d="M76.1832 18.9387C65.7752 18.9387 64.1582 13.1187 64.1582 9.93173V9.23073C64.1582 5.97173 65.5582 0.344727 76.1832 0.344727H77.1732C87.5812 0.344727 89.1992 5.31973 89.1992 7.41973V7.68573H83.2342C83.0892 7.20273 82.3652 4.69073 76.6662 4.69073C71.2812 4.69073 70.0492 7.10573 70.0492 9.35173V9.64173C70.0492 11.7667 71.4742 14.5677 76.7142 14.5677C82.5342 14.5677 83.1132 11.7907 83.2582 11.3807H89.2232V11.6467C89.2232 13.9157 87.4362 18.9387 77.1732 18.9387H76.1832Z" fill="#D4DFE1"/>
<path fill-rule="evenodd" clip-rule="evenodd" d="M60.3868 4.1269C60.3868 4.8989 59.9568 5.8739 57.8578 5.8739H55.4738V2.2829H57.8528C59.9328 2.2829 60.3868 3.1759 60.3868 3.9819V4.1269ZM54.9738 5.8739H53.8298C53.7958 5.8309 53.7768 5.7779 53.7768 5.6479V5.2319C53.7768 4.7929 53.5838 4.5999 53.0288 4.5999H51.5608V5.8739H50.4368V2.2829H53.3328C54.5298 2.2829 54.8918 2.6979 54.8918 3.2149V3.2729C54.8918 3.7889 54.4618 3.9819 54.2258 4.0599C54.5928 4.1659 54.9068 4.4209 54.9068 4.8849V5.4109C54.9068 5.6999 54.9398 5.7919 54.9738 5.8499V5.8739ZM48.5078 18.7439H62.2748V0.149902H48.5078V18.7439Z" fill="#FFB500"/>
<path fill-rule="evenodd" clip-rule="evenodd" d="M57.7657 3.13281H56.5977V5.00981H57.7657C59.0397 5.00981 59.2087 4.44981 59.2087 4.08381V4.05381C59.2087 3.68781 59.0587 3.13281 57.7657 3.13281Z" fill="#FFB500"/>
<path fill-rule="evenodd" clip-rule="evenodd" d="M53.2645 3.09867H51.5605V3.80367H53.2645C53.5875 3.80367 53.7185 3.64867 53.7185 3.45167V3.44667C53.7185 3.25867 53.5925 3.09867 53.2645 3.09867Z" fill="#FFB500"/>
<path d="M113.143 17.4758V1.34277" stroke="#D4DFE1" stroke-width="1.07"/>
</svg>
