<svg width="64" height="13" viewBox="0 0 64 13" fill="none" xmlns="http://www.w3.org/2000/svg">
<path fill-rule="evenodd" clip-rule="evenodd" d="M-0.000488281 13.001V11.5586C-0.000488281 9.66918 0.351878 6.81817 6.4318 5.58186L9.49803 4.9637C11.2778 4.63777 11.4354 4.29435 11.4354 3.89848C11.4354 3.40146 11.0305 2.9369 8.1411 2.9369C4.84551 2.9369 4.56362 4.10453 4.51108 4.74017H0.22887V4.6028C0.22887 3.14296 0.86313 0.000976562 7.64779 0.000976562H8.35252C14.5196 0.000976562 15.7702 1.90664 15.7702 3.93345V3.96841C15.7702 5.89156 15.0129 7.11039 10.7127 7.79723L7.1186 8.38167C4.01777 8.93114 3.66412 9.61798 3.66412 9.97888H11.9646V8.33047H15.9995V13.001H-0.000488281Z" fill="#D4DFE1"/>
<path fill-rule="evenodd" clip-rule="evenodd" d="M24.5719 13.001C17.6484 13.001 16.9995 9.60764 16.9995 8.32471V8.18966H21.1872C21.2382 8.51009 21.4259 10.0975 24.9311 10.0975C28.5545 10.0975 28.7596 9.20251 28.7596 8.6967C28.7596 8.20685 28.4861 7.717 26.9821 7.717H22.4861V4.79633H26.777C28.1965 4.79633 28.4352 4.39119 28.4352 3.96887C28.4352 3.51217 28.1617 2.87131 24.6751 2.87131C21.273 2.87131 21.2382 4.03639 21.1872 4.30648H17.0331V4.13706C17.0331 2.98917 17.5464 0.000976562 24.2985 0.000976562H25.0157C31.8199 0.000976562 32.6055 1.89162 32.6055 3.2433V3.34397C32.6055 4.66128 31.3923 5.33651 30.5719 5.52189C31.58 5.79199 32.9995 6.65382 32.9995 8.5948V8.71266C32.9995 10.8231 31.6484 13.001 25.3749 13.001H24.5719Z" fill="#D4DFE1"/>
<path fill-rule="evenodd" clip-rule="evenodd" d="M54.6351 13.001C47.1609 13.001 45.9995 8.93242 45.9995 6.70416V6.21431C45.9995 3.93449 47.0046 0.000976562 54.6351 0.000976562H55.3463C62.8204 0.000976562 63.9831 3.47902 63.9831 4.94734V5.13394H59.6994C59.5947 4.79633 59.0752 3.03951 54.9819 3.03951C51.1143 3.03951 50.2303 4.72881 50.2303 6.29902V6.50159C50.2303 7.98709 51.253 9.94526 55.0172 9.94526C59.1962 9.94526 59.6124 8.00428 59.717 7.717H63.9995V7.90238C63.9995 9.48979 62.717 13.001 55.3463 13.001H54.6351Z" fill="#D4DFE1"/>
<path fill-rule="evenodd" clip-rule="evenodd" d="M43.6283 2.78169C43.6283 3.32065 43.3158 4.00324 41.7916 4.00324H40.0595V1.49262H41.7878C43.2993 1.49262 43.6283 2.11628 43.6283 2.67979V2.78169ZM39.6959 4.00324H38.8656C38.8413 3.97255 38.826 3.93572 38.826 3.84487V3.55391C38.826 3.24699 38.6857 3.11194 38.284 3.11194H37.2176V4.00324H36.4V1.49262H38.5046C39.3745 1.49262 39.6373 1.78235 39.6373 2.14329V2.18381C39.6373 2.54598 39.3248 2.67979 39.1526 2.73381C39.4192 2.8087 39.6475 2.98672 39.6475 3.31205V3.67913C39.6475 3.8817 39.6717 3.94554 39.6959 3.98606V4.00324ZM34.9995 13.001H44.9995V0.000976562H34.9995V13.001Z" fill="#FFB500"/>
<path fill-rule="evenodd" clip-rule="evenodd" d="M41.8939 2.00098H40.9995V3.00098H41.8939C42.8704 3.00098 42.9995 2.70257 42.9995 2.50799V2.49209C42.9995 2.29658 42.8852 2.00098 41.8939 2.00098Z" fill="#FFB500"/>
<path fill-rule="evenodd" clip-rule="evenodd" d="M38.5793 1.29998H36.9995V1.70198H38.5793C38.879 1.70198 38.9995 1.61298 38.9995 1.50098V1.49798C38.9995 1.39098 38.8839 1.29998 38.5793 1.29998Z" fill="#FFB500"/>
</svg>
